Coordinates
version=1
nRows=18
nColumns=38
inDegrees=yes

Units are S.I. units (second, meters, Newtons, ...)
Angles are in degrees.

endheader
time	pelvis_tilt	pelvis_list	pelvis_rotation	pelvis_tx	pelvis_ty	pelvis_tz	hip_flexion_r	hip_adduction_r	hip_rotation_r	knee_angle_r	ankle_angle_r	subtalar_angle_r	mtp_angle_r	hip_flexion_l	hip_adduction_l	hip_rotation_l	knee_angle_l	ankle_angle_l	subtalar_angle_l	mtp_angle_l	lumbar_extension	lumbar_bending	lumbar_rotation	arm_flex_r	arm_add_r	arm_rot_r	elbow_flex_r	pro_sup_r	wrist_flex_r	wrist_dev_r	arm_flex_l	arm_add_l	arm_rot_l	elbow_flex_l	pro_sup_l	wrist_flex_l	wrist_dev_l
      2.79000000	     -5.54596857	     -3.88301144	     -5.26484257	     -0.22845073	      0.86367940	      2.60921986	     25.39227797	      7.37404404	      1.38868026	    -16.34272887	     -1.48727651	      0.00000000	      0.00000000	     -0.52249792	     -5.70519393	     -2.69056821	    -74.49430952	    -23.40608399	      0.00000000	      0.00000000	     -4.04840925	      5.12557413	     -8.30030318	    -28.18233760	    -19.25250567	      8.39142056	    116.59017815	     78.45345554	      0.00000000	      0.00000000	      7.12035950	    -13.35057382	     26.43167644	    121.23747105	    104.16305516	      0.00000000	      0.00000000
      2.80000000	     -4.78035676	     -4.83058308	     -5.85316249	     -0.23029608	      0.85401590	      2.61202147	     25.73238760	      8.94682813	      1.93867870	    -21.00728082	     -0.20258566	      0.00000000	      0.00000000	      0.91707326	     -7.41774793	     -3.30759824	    -80.00713748	    -21.54667321	      0.00000000	      0.00000000	     -5.42733710	      5.92267641	     -6.94443960	    -25.64368675	    -19.32713070	      9.83976221	    115.31165882	     77.29337874	      0.00000000	      0.00000000	      6.16590250	    -13.52556769	     26.27892098	    120.54860022	    104.22537308	      0.00000000	      0.00000000
      2.81000000	     -4.06799809	     -6.04470803	     -6.43219109	     -0.23341719	      0.84446448	      2.61507034	     26.42843435	     10.87314499	      2.20458177	    -26.50549324	      2.03073104	      0.00000000	      0.00000000	      2.57406228	     -9.50374335	     -3.63091755	    -85.45021821	    -19.63829879	      0.00000000	      0.00000000	     -6.95356598	      6.91492939	     -5.48521833	    -22.72271652	    -19.43356906	     11.50240441	    113.97594247	     76.08551208	      0.00000000	      0.00000000	      5.16655348	    -13.73501417	     25.85192464	    119.84281803	    104.16590669	      0.00000000	      0.00000000
      2.82000000	     -3.51159390	     -7.40687181	     -6.99793703	     -0.23711132	      0.83479073	      2.61807175	     27.29605729	     12.97787421	      2.40834377	    -32.23125609	      5.06299704	      0.00000000	      0.00000000	      4.55165776	    -11.76681575	     -3.63330796	    -90.65458981	    -17.73103475	      0.00000000	      0.00000000	     -8.38842104	      8.05253588	     -3.95769471	    -19.45040107	    -19.60741186	     13.37446676	    112.59497275	     74.99631235	      0.00000000	      0.00000000	      4.04440033	    -13.87421699	     25.14721365	    119.07297562	    103.97880250	      0.00000000	      0.00000000
      2.83000000	     -3.23549932	     -8.73011618	     -7.55093742	     -0.24064076	      0.82567629	      2.62041019	     28.05931697	     14.99060079	      2.68492984	    -37.32168458	      8.48658102	      0.00000000	      0.00000000	      6.95483105	    -13.91086895	     -3.37177840	    -95.38237576	    -15.86206613	      0.00000000	      0.00000000	     -9.47896362	      9.23640582	     -2.42115418	    -15.92284173	    -19.87828324	     15.41103281	    111.19267470	     74.17845666	      0.00000000	      0.00000000	      2.69025483	    -13.89265472	     24.23102743	    118.21713891	    103.69030863	      0.00000000	      0.00000000
      2.84000000	     -3.31164014	     -9.83076530	     -8.06545034	     -0.24351865	      0.81849426	      2.62151668	     28.38605109	     16.60120003	      3.01012084	    -41.03071550	     11.82381653	      0.00000000	      0.00000000	      9.82447508	    -15.64489100	     -2.90292394	    -99.39223646	    -14.05265747	      0.00000000	      0.00000000	    -10.09461951	     10.32650792	     -0.95995122	    -12.26894305	    -20.22680093	     17.54149502	    109.83166223	     73.74339095	      0.00000000	      0.00000000	      1.04985297	    -13.81248997	     23.20700781	    117.30479196	    103.33614602	      0.00000000	      0.00000000
      2.85000000	     -3.63502434	    -10.58695075	     -8.44152433	     -0.24565428	      0.81387515	      2.62147395	     27.98808039	     17.56635881	      3.24015382	    -43.03527381	     14.70951192	      0.00000000	      0.00000000	     13.05643455	    -16.76437624	     -2.22654516	   -102.52777730	    -12.31690952	      0.00000000	      0.00000000	    -10.28880990	     11.17341775	      0.32707179	     -8.60643869	    -20.57218497	     19.67548335	    108.63931126	     73.74375117	      0.00000000	      0.00000000	     -0.81841419	    -13.70589475	     22.16531518	    116.42967027	    102.93622997	      0.00000000	      0.00000000
      2.86000000	     -3.93386916	    -10.96574445	     -8.50629886	     -0.24725074	      0.81160835	      2.62086456	     26.73093825	     17.79295831	      3.23867077	    -43.50405932	     16.97859538	      0.00000000	      0.00000000	     16.40318123	    -17.17413117	     -1.30961001	   -104.76284834	    -10.67104950	      0.00000000	      0.00000000	    -10.25313978	     11.67141775	      1.34572867	     -5.01722814	    -20.81116655	     21.69438434	    107.79077828	     74.16589759	      0.00000000	      0.00000000	     -2.77535958	    -13.65753562	     21.15457081	    115.72725393	    102.48072634	      0.00000000	      0.00000000
      2.87000000	     -3.94498508	    -11.00320310	     -8.10031920	     -0.24852574	      0.81143601	      2.61996002	     24.68125222	     17.35170110	      2.98417715	    -42.92231410	     18.64331550	      0.00000000	      0.00000000	     19.59193313	    -16.86619527	     -0.16114551	   -106.16581313	     -9.13562340	      0.00000000	      0.00000000	    -10.19817617	     11.79652335	      2.03084279	     -1.56091837	    -20.87373212	     23.45623432	    107.44251603	     74.93131406	      0.00000000	      0.00000000	     -4.68943139	    -13.73147813	     20.18913845	    115.32527518	    101.93465168	      0.00000000	      0.00000000
      2.88000000	     -3.59435314	    -10.74924847	     -7.19188528	     -0.24955236	      0.81303602	      2.61838089	     22.06986986	     16.42687165	      2.58005001	    -41.80731047	     19.80256406	      0.00000000	      0.00000000	     22.47241895	    -15.89395159	      1.12127205	   -106.81794518	     -7.73126163	      0.00000000	      0.00000000	    -10.23149723	     11.59208022	      2.37552663	      1.69648871	    -20.74507489	     24.83266441	    107.66231818	     75.90865830	      0.00000000	      0.00000000	     -6.49960053	    -13.95110961	     19.26998565	    115.29867550	    101.25652439	      0.00000000	      0.00000000
      2.89000000	     -3.04052621	    -10.22967767	     -5.92194653	     -0.25011667	      0.81583724	      2.61595585	     19.19920056	     15.22280964	      2.18637096	    -40.48732120	     20.54345342	      0.00000000	      0.00000000	     25.07571054	    -14.36513877	      2.37779931	   -106.75317510	     -6.47300955	      0.00000000	      0.00000000	    -10.30547804	     11.11620468	      2.45542354	      4.68069235	    -20.44630385	     25.75317081	    108.40678887	     76.93863800	      0.00000000	      0.00000000	     -8.21540013	    -14.29817840	     18.39515929	    115.64784103	    100.41965423	      0.00000000	      0.00000000
      2.90000000	     -2.56601724	     -9.44982335	     -4.53616055	     -0.25025205	      0.81954683	      2.61316416	     16.33909748	     13.88492571	      1.93044011	    -39.04494191	     20.87957330	      0.00000000	      0.00000000	     27.54709636	    -12.43363956	      3.44848140	   -105.95411786	     -5.36806605	      0.00000000	      0.00000000	    -10.26543162	     10.40144609	      2.42455865	      7.33417091	    -20.00462008	     26.22480103	    109.55344291	     77.86712170	      0.00000000	      0.00000000	     -9.87913186	    -14.72989655	     17.55858019	    116.30075899	     99.42667943	      0.00000000	      0.00000000
      2.91000000	     -2.40119045	     -8.43691051	     -3.26421618	     -0.25048293	      0.82425946	      2.61045922	     13.65136594	     12.47165284	      1.84914093	    -37.41073240	     20.74119824	      0.00000000	      0.00000000	     30.01221405	    -10.26971024	      4.21555317	   -104.39110727	     -4.41828454	      0.00000000	      0.00000000	     -9.96122268	      9.45642999	      2.46487604	      9.63517716	    -19.44229961	     26.31906354	    110.95758711	     78.57626529	      0.00000000	      0.00000000	    -11.52728667	    -15.20101835	     16.75040591	    117.13620522	     98.31399264	      0.00000000	      0.00000000
      2.92000000	     -2.60604700	     -7.26187715	     -2.23722457	     -0.25089966	      0.82979220	      2.60794475	     11.16006890	     10.97603743	      1.88765420	    -35.51217257	     20.00619947	      0.00000000	      0.00000000	     32.46800884	     -8.02538127	      4.62347304	   -102.06541179	     -3.62450188	      0.00000000	      0.00000000	     -9.34444008	      8.29629372	      2.71013935	     11.59648817	    -18.78653505	     26.13686911	    112.49956688	     79.00450815	      0.00000000	      0.00000000	    -13.16940940	    -15.67928609	     15.96285686	    118.02195822	     97.14701825	      0.00000000	      0.00000000
      2.93000000	     -3.07118474	     -5.99668679	     -1.46987714	     -0.25102149	      0.83581775	      2.60557145	      8.77623342	      9.37564615	      1.94025348	    -33.37022185	     18.54709009	      0.00000000	      0.00000000	     34.76608037	     -5.81315220	      4.69335929	    -99.02000849	     -2.98795553	      0.00000000	      0.00000000	     -8.49472945	      6.96483843	      3.19975452	     13.25329900	    -18.07806937	     25.77600842	    114.10160202	     79.15138910	      0.00000000	      0.00000000	    -14.78708289	    -16.15283111	     15.19216051	    118.85369262	     96.00891760	      0.00000000	      0.00000000
      2.94000000	     -3.60013836	     -4.67211949	     -0.88991862	     -0.25059880	      0.84240473	      2.60320468	      6.36928531	      7.66536285	      1.90045226	    -31.09492458	     16.27105438	      0.00000000	      0.00000000	     36.69283057	     -3.69501848	      4.52049328	    -95.31156191	     -2.50563741	      0.00000000	      0.00000000	     -7.57486057	      5.52371180	      3.89074667	     14.65221029	    -17.36301837	     25.32023121	    115.71593912	     79.06886840	      0.00000000	      0.00000000	    -16.34745713	    -16.62720820	     14.43469022	    119.57649448	     94.98580754	      0.00000000	      0.00000000
      2.95000000	     -4.01644309	     -3.29628219	     -0.39421319	     -0.24973590	      0.84973231	      2.60072802	      3.84010471	      5.85506872	      1.68730302	    -28.81292785	     13.13899862	      0.00000000	      0.00000000	     38.07780398	     -1.68064744	      4.24099537	    -90.97819114	     -2.16164083	      0.00000000	      0.00000000	     -6.75103702	      4.02263936	      4.70071403	     15.84550453	    -16.67501278	     24.84521324	    117.30494616	     78.84408814	      0.00000000	      0.00000000	    -17.81885018	    -17.10982252	     13.68421123	    120.18197214	     94.15225269	      0.00000000	      0.00000000
      2.96000000	     -4.24289905	     -1.88888588	      0.09244355	     -0.24852520	      0.85767509	      2.59815378	      1.15963881	      3.96454567	      1.23755377	    -26.59303941	      9.16406042	      0.00000000	      0.00000000	     38.85528514	      0.25329586	      3.98661000	    -86.03547479	     -1.92230054	      0.00000000	      0.00000000	     -6.12285769	      2.48509186	      5.54405164	     16.88568172	    -16.02339375	     24.42402962	    118.83139659	     78.57878831	      0.00000000	      0.00000000	    -19.17876072	    -17.59109103	     12.93045222	    120.68901186	     93.56049210	      0.00000000	      0.00000000
